<svg xmlns="http://www.w3.org/2000/svg" xmlns:xlink="http://www.w3.org/1999/xlink" width="1080" zoomAndPan="magnify" viewBox="0 0 810 809.999993" height="1080" preserveAspectRatio="xMidYMid meet" version="1.0"><defs><clipPath id="df780b693e"><path d="M 0 0 L 48.75 0 L 48.75 48.75 L 0 48.75 Z M 0 0 " clip-rule="nonzero"/></clipPath><clipPath id="e6d94e0ec3"><path d="M 84.554688 0 L 133.304688 0 L 133.304688 48.75 L 84.554688 48.75 Z M 84.554688 0 " clip-rule="nonzero"/></clipPath><clipPath id="94a82707e9"><path d="M 169.109375 0 L 217.859375 0 L 217.859375 48.75 L 169.109375 48.75 Z M 169.109375 0 " clip-rule="nonzero"/></clipPath><clipPath id="4588ca4ca5"><path d="M 253.664062 0 L 302.414062 0 L 302.414062 48.75 L 253.664062 48.75 Z M 253.664062 0 " clip-rule="nonzero"/></clipPath><clipPath id="c805278c64"><path d="M 338.21875 0 L 386.96875 0 L 386.96875 48.75 L 338.21875 48.75 Z M 338.21875 0 " clip-rule="nonzero"/></clipPath><clipPath id="f29e3c450f"><path d="M 422.773438 0 L 471.523438 0 L 471.523438 48.75 L 422.773438 48.75 Z M 422.773438 0 " clip-rule="nonzero"/></clipPath><clipPath id="73cdcdd05d"><path d="M 507.324219 0 L 556.074219 0 L 556.074219 48.75 L 507.324219 48.75 Z M 507.324219 0 " clip-rule="nonzero"/></clipPath><clipPath id="1c6b447898"><path d="M 591.878906 0 L 640.628906 0 L 640.628906 48.75 L 591.878906 48.75 Z M 591.878906 0 " clip-rule="nonzero"/></clipPath><clipPath id="8d5938410a"><path d="M 676.433594 0 L 725.183594 0 L 725.183594 48.75 L 676.433594 48.75 Z M 676.433594 0 " clip-rule="nonzero"/></clipPath><clipPath id="996583dbb2"><path d="M 760.988281 0 L 809.738281 0 L 809.738281 48.75 L 760.988281 48.75 Z M 760.988281 0 " clip-rule="nonzero"/></clipPath><clipPath id="f97e85044e"><path d="M 0 84.554688 L 48.75 84.554688 L 48.75 133.304688 L 0 133.304688 Z M 0 84.554688 " clip-rule="nonzero"/></clipPath><clipPath id="0ce3bdfab4"><path d="M 84.554688 84.554688 L 133.304688 84.554688 L 133.304688 133.304688 L 84.554688 133.304688 Z M 84.554688 84.554688 " clip-rule="nonzero"/></clipPath><clipPath id="cee4ad0233"><path d="M 169.109375 84.554688 L 217.859375 84.554688 L 217.859375 133.304688 L 169.109375 133.304688 Z M 169.109375 84.554688 " clip-rule="nonzero"/></clipPath><clipPath id="f3311db195"><path d="M 253.664062 84.554688 L 302.414062 84.554688 L 302.414062 133.304688 L 253.664062 133.304688 Z M 253.664062 84.554688 " clip-rule="nonzero"/></clipPath><clipPath id="0556cdb6dc"><path d="M 338.21875 84.554688 L 386.96875 84.554688 L 386.96875 133.304688 L 338.21875 133.304688 Z M 338.21875 84.554688 " clip-rule="nonzero"/></clipPath><clipPath id="79a08b996a"><path d="M 422.773438 84.554688 L 471.523438 84.554688 L 471.523438 133.304688 L 422.773438 133.304688 Z M 422.773438 84.554688 " clip-rule="nonzero"/></clipPath><clipPath id="fc4c2fa5f1"><path d="M 507.324219 84.554688 L 556.074219 84.554688 L 556.074219 133.304688 L 507.324219 133.304688 Z M 507.324219 84.554688 " clip-rule="nonzero"/></clipPath><clipPath id="f39421f6ce"><path d="M 591.878906 84.554688 L 640.628906 84.554688 L 640.628906 133.304688 L 591.878906 133.304688 Z M 591.878906 84.554688 " clip-rule="nonzero"/></clipPath><clipPath id="f950140994"><path d="M 676.433594 84.554688 L 725.183594 84.554688 L 725.183594 133.304688 L 676.433594 133.304688 Z M 676.433594 84.554688 " clip-rule="nonzero"/></clipPath><clipPath id="88d3db80e8"><path d="M 760.988281 84.554688 L 809.738281 84.554688 L 809.738281 133.304688 L 760.988281 133.304688 Z M 760.988281 84.554688 " clip-rule="nonzero"/></clipPath><clipPath id="92c0d6ed4f"><path d="M 0 169.109375 L 48.75 169.109375 L 48.75 217.859375 L 0 217.859375 Z M 0 169.109375 " clip-rule="nonzero"/></clipPath><clipPath id="af6582f736"><path d="M 84.554688 169.109375 L 133.304688 169.109375 L 133.304688 217.859375 L 84.554688 217.859375 Z M 84.554688 169.109375 " clip-rule="nonzero"/></clipPath><clipPath id="c77298e689"><path d="M 169.109375 169.109375 L 217.859375 169.109375 L 217.859375 217.859375 L 169.109375 217.859375 Z M 169.109375 169.109375 " clip-rule="nonzero"/></clipPath><clipPath id="51207acdb7"><path d="M 253.664062 169.109375 L 302.414062 169.109375 L 302.414062 217.859375 L 253.664062 217.859375 Z M 253.664062 169.109375 " clip-rule="nonzero"/></clipPath><clipPath id="15281b92c7"><path d="M 338.21875 169.109375 L 386.96875 169.109375 L 386.96875 217.859375 L 338.21875 217.859375 Z M 338.21875 169.109375 " clip-rule="nonzero"/></clipPath><clipPath id="114c3141ee"><path d="M 422.773438 169.109375 L 471.523438 169.109375 L 471.523438 217.859375 L 422.773438 217.859375 Z M 422.773438 169.109375 " clip-rule="nonzero"/></clipPath><clipPath id="1852a8dde4"><path d="M 507.324219 169.109375 L 556.074219 169.109375 L 556.074219 217.859375 L 507.324219 217.859375 Z M 507.324219 169.109375 " clip-rule="nonzero"/></clipPath><clipPath id="d1b9ce2a69"><path d="M 591.878906 169.109375 L 640.628906 169.109375 L 640.628906 217.859375 L 591.878906 217.859375 Z M 591.878906 169.109375 " clip-rule="nonzero"/></clipPath><clipPath id="56586b6bd9"><path d="M 676.433594 169.109375 L 725.183594 169.109375 L 725.183594 217.859375 L 676.433594 217.859375 Z M 676.433594 169.109375 " clip-rule="nonzero"/></clipPath><clipPath id="2292e0f35c"><path d="M 760.988281 169.109375 L 809.738281 169.109375 L 809.738281 217.859375 L 760.988281 217.859375 Z M 760.988281 169.109375 " clip-rule="nonzero"/></clipPath><clipPath id="fe08ad62bf"><path d="M 0 253.664062 L 48.75 253.664062 L 48.75 302.414062 L 0 302.414062 Z M 0 253.664062 " clip-rule="nonzero"/></clipPath><clipPath id="cebcc7fe27"><path d="M 84.554688 253.664062 L 133.304688 253.664062 L 133.304688 302.414062 L 84.554688 302.414062 Z M 84.554688 253.664062 " clip-rule="nonzero"/></clipPath><clipPath id="928a8595d8"><path d="M 169.109375 253.664062 L 217.859375 253.664062 L 217.859375 302.414062 L 169.109375 302.414062 Z M 169.109375 253.664062 " clip-rule="nonzero"/></clipPath><clipPath id="0d52940ff0"><path d="M 253.664062 253.664062 L 302.414062 253.664062 L 302.414062 302.414062 L 253.664062 302.414062 Z M 253.664062 253.664062 " clip-rule="nonzero"/></clipPath><clipPath id="bd05a6dea0"><path d="M 338.21875 253.664062 L 386.96875 253.664062 L 386.96875 302.414062 L 338.21875 302.414062 Z M 338.21875 253.664062 " clip-rule="nonzero"/></clipPath><clipPath id="cfaf586439"><path d="M 422.773438 253.664062 L 471.523438 253.664062 L 471.523438 302.414062 L 422.773438 302.414062 Z M 422.773438 253.664062 " clip-rule="nonzero"/></clipPath><clipPath id="6b3a71b158"><path d="M 507.324219 253.664062 L 556.074219 253.664062 L 556.074219 302.414062 L 507.324219 302.414062 Z M 507.324219 253.664062 " clip-rule="nonzero"/></clipPath><clipPath id="04564c95df"><path d="M 591.878906 253.664062 L 640.628906 253.664062 L 640.628906 302.414062 L 591.878906 302.414062 Z M 591.878906 253.664062 " clip-rule="nonzero"/></clipPath><clipPath id="75c77263aa"><path d="M 676.433594 253.664062 L 725.183594 253.664062 L 725.183594 302.414062 L 676.433594 302.414062 Z M 676.433594 253.664062 " clip-rule="nonzero"/></clipPath><clipPath id="54d5502e17"><path d="M 760.988281 253.664062 L 809.738281 253.664062 L 809.738281 302.414062 L 760.988281 302.414062 Z M 760.988281 253.664062 " clip-rule="nonzero"/></clipPath><clipPath id="3a04519af8"><path d="M 0 338.21875 L 48.75 338.21875 L 48.75 386.96875 L 0 386.96875 Z M 0 338.21875 " clip-rule="nonzero"/></clipPath><clipPath id="08cc7b1ced"><path d="M 84.554688 338.21875 L 133.304688 338.21875 L 133.304688 386.96875 L 84.554688 386.96875 Z M 84.554688 338.21875 " clip-rule="nonzero"/></clipPath><clipPath id="0524dbc9ab"><path d="M 169.109375 338.21875 L 217.859375 338.21875 L 217.859375 386.96875 L 169.109375 386.96875 Z M 169.109375 338.21875 " clip-rule="nonzero"/></clipPath><clipPath id="6d475349dd"><path d="M 253.664062 338.21875 L 302.414062 338.21875 L 302.414062 386.96875 L 253.664062 386.96875 Z M 253.664062 338.21875 " clip-rule="nonzero"/></clipPath><clipPath id="6a28ce56de"><path d="M 338.21875 338.21875 L 386.96875 338.21875 L 386.96875 386.96875 L 338.21875 386.96875 Z M 338.21875 338.21875 " clip-rule="nonzero"/></clipPath><clipPath id="624b133821"><path d="M 422.773438 338.21875 L 471.523438 338.21875 L 471.523438 386.96875 L 422.773438 386.96875 Z M 422.773438 338.21875 " clip-rule="nonzero"/></clipPath><clipPath id="95fb16a201"><path d="M 507.324219 338.21875 L 556.074219 338.21875 L 556.074219 386.96875 L 507.324219 386.96875 Z M 507.324219 338.21875 " clip-rule="nonzero"/></clipPath><clipPath id="d73807c5a5"><path d="M 591.878906 338.21875 L 640.628906 338.21875 L 640.628906 386.96875 L 591.878906 386.96875 Z M 591.878906 338.21875 " clip-rule="nonzero"/></clipPath><clipPath id="e8586dcc7e"><path d="M 676.433594 338.21875 L 725.183594 338.21875 L 725.183594 386.96875 L 676.433594 386.96875 Z M 676.433594 338.21875 " clip-rule="nonzero"/></clipPath><clipPath id="9c1641c4e8"><path d="M 760.988281 338.21875 L 809.738281 338.21875 L 809.738281 386.96875 L 760.988281 386.96875 Z M 760.988281 338.21875 " clip-rule="nonzero"/></clipPath><clipPath id="fe3100da28"><path d="M 0 422.773438 L 48.75 422.773438 L 48.75 471.523438 L 0 471.523438 Z M 0 422.773438 " clip-rule="nonzero"/></clipPath><clipPath id="7790794adc"><path d="M 84.554688 422.773438 L 133.304688 422.773438 L 133.304688 471.523438 L 84.554688 471.523438 Z M 84.554688 422.773438 " clip-rule="nonzero"/></clipPath><clipPath id="6a48ca2c93"><path d="M 169.109375 422.773438 L 217.859375 422.773438 L 217.859375 471.523438 L 169.109375 471.523438 Z M 169.109375 422.773438 " clip-rule="nonzero"/></clipPath><clipPath id="bb4f66776a"><path d="M 253.664062 422.773438 L 302.414062 422.773438 L 302.414062 471.523438 L 253.664062 471.523438 Z M 253.664062 422.773438 " clip-rule="nonzero"/></clipPath><clipPath id="ec3aa1953e"><path d="M 338.21875 422.773438 L 386.96875 422.773438 L 386.96875 471.523438 L 338.21875 471.523438 Z M 338.21875 422.773438 " clip-rule="nonzero"/></clipPath><clipPath id="9a3b7dce2a"><path d="M 422.773438 422.773438 L 471.523438 422.773438 L 471.523438 471.523438 L 422.773438 471.523438 Z M 422.773438 422.773438 " clip-rule="nonzero"/></clipPath><clipPath id="c89f450f1c"><path d="M 507.324219 422.773438 L 556.074219 422.773438 L 556.074219 471.523438 L 507.324219 471.523438 Z M 507.324219 422.773438 " clip-rule="nonzero"/></clipPath><clipPath id="23bcbb4411"><path d="M 591.878906 422.773438 L 640.628906 422.773438 L 640.628906 471.523438 L 591.878906 471.523438 Z M 591.878906 422.773438 " clip-rule="nonzero"/></clipPath><clipPath id="caeb3870ef"><path d="M 676.433594 422.773438 L 725.183594 422.773438 L 725.183594 471.523438 L 676.433594 471.523438 Z M 676.433594 422.773438 " clip-rule="nonzero"/></clipPath><clipPath id="42f66ed344"><path d="M 760.988281 422.773438 L 809.738281 422.773438 L 809.738281 471.523438 L 760.988281 471.523438 Z M 760.988281 422.773438 " clip-rule="nonzero"/></clipPath><clipPath id="00f3c6f2df"><path d="M 0 507.324219 L 48.75 507.324219 L 48.75 556.074219 L 0 556.074219 Z M 0 507.324219 " clip-rule="nonzero"/></clipPath><clipPath id="23f044d760"><path d="M 84.554688 507.324219 L 133.304688 507.324219 L 133.304688 556.074219 L 84.554688 556.074219 Z M 84.554688 507.324219 " clip-rule="nonzero"/></clipPath><clipPath id="a746c55bdc"><path d="M 169.109375 507.324219 L 217.859375 507.324219 L 217.859375 556.074219 L 169.109375 556.074219 Z M 169.109375 507.324219 " clip-rule="nonzero"/></clipPath><clipPath id="14c72e444c"><path d="M 253.664062 507.324219 L 302.414062 507.324219 L 302.414062 556.074219 L 253.664062 556.074219 Z M 253.664062 507.324219 " clip-rule="nonzero"/></clipPath><clipPath id="4807883d13"><path d="M 338.21875 507.324219 L 386.96875 507.324219 L 386.96875 556.074219 L 338.21875 556.074219 Z M 338.21875 507.324219 " clip-rule="nonzero"/></clipPath><clipPath id="0ac90c4581"><path d="M 422.773438 507.324219 L 471.523438 507.324219 L 471.523438 556.074219 L 422.773438 556.074219 Z M 422.773438 507.324219 " clip-rule="nonzero"/></clipPath><clipPath id="ea30a43321"><path d="M 507.324219 507.324219 L 556.074219 507.324219 L 556.074219 556.074219 L 507.324219 556.074219 Z M 507.324219 507.324219 " clip-rule="nonzero"/></clipPath><clipPath id="0ba24d5db7"><path d="M 591.878906 507.324219 L 640.628906 507.324219 L 640.628906 556.074219 L 591.878906 556.074219 Z M 591.878906 507.324219 " clip-rule="nonzero"/></clipPath><clipPath id="cbe58b4d04"><path d="M 676.433594 507.324219 L 725.183594 507.324219 L 725.183594 556.074219 L 676.433594 556.074219 Z M 676.433594 507.324219 " clip-rule="nonzero"/></clipPath><clipPath id="d0910a148b"><path d="M 760.988281 507.324219 L 809.738281 507.324219 L 809.738281 556.074219 L 760.988281 556.074219 Z M 760.988281 507.324219 " clip-rule="nonzero"/></clipPath><clipPath id="402ccefae0"><path d="M 0 591.878906 L 48.75 591.878906 L 48.75 640.628906 L 0 640.628906 Z M 0 591.878906 " clip-rule="nonzero"/></clipPath><clipPath id="4345a2dbed"><path d="M 84.554688 591.878906 L 133.304688 591.878906 L 133.304688 640.628906 L 84.554688 640.628906 Z M 84.554688 591.878906 " clip-rule="nonzero"/></clipPath><clipPath id="69a94aca47"><path d="M 169.109375 591.878906 L 217.859375 591.878906 L 217.859375 640.628906 L 169.109375 640.628906 Z M 169.109375 591.878906 " clip-rule="nonzero"/></clipPath><clipPath id="c5e4c14994"><path d="M 253.664062 591.878906 L 302.414062 591.878906 L 302.414062 640.628906 L 253.664062 640.628906 Z M 253.664062 591.878906 " clip-rule="nonzero"/></clipPath><clipPath id="715cfc0e13"><path d="M 338.21875 591.878906 L 386.96875 591.878906 L 386.96875 640.628906 L 338.21875 640.628906 Z M 338.21875 591.878906 " clip-rule="nonzero"/></clipPath><clipPath id="c64922064c"><path d="M 422.773438 591.878906 L 471.523438 591.878906 L 471.523438 640.628906 L 422.773438 640.628906 Z M 422.773438 591.878906 " clip-rule="nonzero"/></clipPath><clipPath id="c0cc9254a4"><path d="M 507.324219 591.878906 L 556.074219 591.878906 L 556.074219 640.628906 L 507.324219 640.628906 Z M 507.324219 591.878906 " clip-rule="nonzero"/></clipPath><clipPath id="879eef6d60"><path d="M 591.878906 591.878906 L 640.628906 591.878906 L 640.628906 640.628906 L 591.878906 640.628906 Z M 591.878906 591.878906 " clip-rule="nonzero"/></clipPath><clipPath id="e80215afbc"><path d="M 676.433594 591.878906 L 725.183594 591.878906 L 725.183594 640.628906 L 676.433594 640.628906 Z M 676.433594 591.878906 " clip-rule="nonzero"/></clipPath><clipPath id="cfb861a2a8"><path d="M 760.988281 591.878906 L 809.738281 591.878906 L 809.738281 640.628906 L 760.988281 640.628906 Z M 760.988281 591.878906 " clip-rule="nonzero"/></clipPath><clipPath id="7e3b09d769"><path d="M 0 676.433594 L 48.75 676.433594 L 48.75 725.183594 L 0 725.183594 Z M 0 676.433594 " clip-rule="nonzero"/></clipPath><clipPath id="2d17da69df"><path d="M 84.554688 676.433594 L 133.304688 676.433594 L 133.304688 725.183594 L 84.554688 725.183594 Z M 84.554688 676.433594 " clip-rule="nonzero"/></clipPath><clipPath id="7fc7f438b4"><path d="M 169.109375 676.433594 L 217.859375 676.433594 L 217.859375 725.183594 L 169.109375 725.183594 Z M 169.109375 676.433594 " clip-rule="nonzero"/></clipPath><clipPath id="f318bd9c87"><path d="M 253.664062 676.433594 L 302.414062 676.433594 L 302.414062 725.183594 L 253.664062 725.183594 Z M 253.664062 676.433594 " clip-rule="nonzero"/></clipPath><clipPath id="4b10d13f3b"><path d="M 338.21875 676.433594 L 386.96875 676.433594 L 386.96875 725.183594 L 338.21875 725.183594 Z M 338.21875 676.433594 " clip-rule="nonzero"/></clipPath><clipPath id="ca682ef7c5"><path d="M 422.773438 676.433594 L 471.523438 676.433594 L 471.523438 725.183594 L 422.773438 725.183594 Z M 422.773438 676.433594 " clip-rule="nonzero"/></clipPath><clipPath id="183c70593d"><path d="M 507.324219 676.433594 L 556.074219 676.433594 L 556.074219 725.183594 L 507.324219 725.183594 Z M 507.324219 676.433594 " clip-rule="nonzero"/></clipPath><clipPath id="fa5aee1595"><path d="M 591.878906 676.433594 L 640.628906 676.433594 L 640.628906 725.183594 L 591.878906 725.183594 Z M 591.878906 676.433594 " clip-rule="nonzero"/></clipPath><clipPath id="b778397eb2"><path d="M 676.433594 676.433594 L 725.183594 676.433594 L 725.183594 725.183594 L 676.433594 725.183594 Z M 676.433594 676.433594 " clip-rule="nonzero"/></clipPath><clipPath id="a0d2e237ba"><path d="M 760.988281 676.433594 L 809.738281 676.433594 L 809.738281 725.183594 L 760.988281 725.183594 Z M 760.988281 676.433594 " clip-rule="nonzero"/></clipPath><clipPath id="aca946512e"><path d="M 0 760.988281 L 48.75 760.988281 L 48.75 809.738281 L 0 809.738281 Z M 0 760.988281 " clip-rule="nonzero"/></clipPath><clipPath id="17e299d3b9"><path d="M 84.554688 760.988281 L 133.304688 760.988281 L 133.304688 809.738281 L 84.554688 809.738281 Z M 84.554688 760.988281 " clip-rule="nonzero"/></clipPath><clipPath id="137f0d721b"><path d="M 169.109375 760.988281 L 217.859375 760.988281 L 217.859375 809.738281 L 169.109375 809.738281 Z M 169.109375 760.988281 " clip-rule="nonzero"/></clipPath><clipPath id="22f5eb82b5"><path d="M 253.664062 760.988281 L 302.414062 760.988281 L 302.414062 809.738281 L 253.664062 809.738281 Z M 253.664062 760.988281 " clip-rule="nonzero"/></clipPath><clipPath id="210900e52f"><path d="M 338.21875 760.988281 L 386.96875 760.988281 L 386.96875 809.738281 L 338.21875 809.738281 Z M 338.21875 760.988281 " clip-rule="nonzero"/></clipPath><clipPath id="215853835d"><path d="M 422.773438 760.988281 L 471.523438 760.988281 L 471.523438 809.738281 L 422.773438 809.738281 Z M 422.773438 760.988281 " clip-rule="nonzero"/></clipPath><clipPath id="08b85e854a"><path d="M 507.324219 760.988281 L 556.074219 760.988281 L 556.074219 809.738281 L 507.324219 809.738281 Z M 507.324219 760.988281 " clip-rule="nonzero"/></clipPath><clipPath id="baac32a5f5"><path d="M 591.878906 760.988281 L 640.628906 760.988281 L 640.628906 809.738281 L 591.878906 809.738281 Z M 591.878906 760.988281 " clip-rule="nonzero"/></clipPath><clipPath id="6c4c38faf1"><path d="M 676.433594 760.988281 L 725.183594 760.988281 L 725.183594 809.738281 L 676.433594 809.738281 Z M 676.433594 760.988281 " clip-rule="nonzero"/></clipPath><clipPath id="c5c9a1610c"><path d="M 760.988281 760.988281 L 809.738281 760.988281 L 809.738281 809.738281 L 760.988281 809.738281 Z M 760.988281 760.988281 " clip-rule="nonzero"/></clipPath></defs><g clip-path="url(#df780b693e)"><path fill="#6415ff" d="M 24.503906 0 C 38.035156 0 49.007812 10.972656 49.007812 24.503906 C 49.007812 38.035156 38.035156 49.007812 24.503906 49.007812 C 10.972656 49.007812 0 38.035156 0 24.503906 C 0 10.972656 10.972656 0 24.503906 0 Z M 24.503906 0 " fill-opacity="1" fill-rule="evenodd"/></g><g clip-path="url(#e6d94e0ec3)"><path fill="#6415ff" d="M 109.058594 0 C 122.589844 0 133.5625 10.972656 133.5625 24.503906 C 133.5625 38.035156 122.589844 49.007812 109.058594 49.007812 C 95.523438 49.007812 84.554688 38.035156 84.554688 24.503906 C 84.554688 10.972656 95.523438 0 109.058594 0 Z M 109.058594 0 " fill-opacity="1" fill-rule="evenodd"/></g><g clip-path="url(#94a82707e9)"><path fill="#6415ff" d="M 193.613281 0 C 207.144531 0 218.117188 10.972656 218.117188 24.503906 C 218.117188 38.035156 207.144531 49.007812 193.613281 49.007812 C 180.078125 49.007812 169.109375 38.035156 169.109375 24.503906 C 169.109375 10.972656 180.078125 0 193.613281 0 Z M 193.613281 0 " fill-opacity="1" fill-rule="evenodd"/></g><g clip-path="url(#4588ca4ca5)"><path fill="#6415ff" d="M 278.167969 0 C 291.699219 0 302.671875 10.972656 302.671875 24.503906 C 302.671875 38.035156 291.699219 49.007812 278.167969 49.007812 C 264.632812 49.007812 253.664062 38.035156 253.664062 24.503906 C 253.664062 10.972656 264.632812 0 278.167969 0 Z M 278.167969 0 " fill-opacity="1" fill-rule="evenodd"/></g><g clip-path="url(#c805278c64)"><path fill="#6415ff" d="M 362.722656 0 C 376.253906 0 387.226562 10.972656 387.226562 24.503906 C 387.226562 38.035156 376.253906 49.007812 362.722656 49.007812 C 349.1875 49.007812 338.21875 38.035156 338.21875 24.503906 C 338.21875 10.972656 349.1875 0 362.722656 0 Z M 362.722656 0 " fill-opacity="1" fill-rule="evenodd"/></g><g clip-path="url(#f29e3c450f)"><path fill="#6415ff" d="M 447.277344 0 C 460.808594 0 471.78125 10.972656 471.78125 24.503906 C 471.78125 38.035156 460.808594 49.007812 447.277344 49.007812 C 433.742188 49.007812 422.773438 38.035156 422.773438 24.503906 C 422.773438 10.972656 433.742188 0 447.277344 0 Z M 447.277344 0 " fill-opacity="1" fill-rule="evenodd"/></g><g clip-path="url(#73cdcdd05d)"><path fill="#6415ff" d="M 531.828125 0 C 545.363281 0 556.332031 10.972656 556.332031 24.503906 C 556.332031 38.035156 545.363281 49.007812 531.828125 49.007812 C 518.296875 49.007812 507.324219 38.035156 507.324219 24.503906 C 507.324219 10.972656 518.296875 0 531.828125 0 Z M 531.828125 0 " fill-opacity="1" fill-rule="evenodd"/></g><g clip-path="url(#1c6b447898)"><path fill="#6415ff" d="M 616.382812 0 C 629.917969 0 640.886719 10.972656 640.886719 24.503906 C 640.886719 38.035156 629.917969 49.007812 616.382812 49.007812 C 602.851562 49.007812 591.878906 38.035156 591.878906 24.503906 C 591.878906 10.972656 602.851562 0 616.382812 0 Z M 616.382812 0 " fill-opacity="1" fill-rule="evenodd"/></g><g clip-path="url(#8d5938410a)"><path fill="#6415ff" d="M 700.9375 0 C 714.472656 0 725.441406 10.972656 725.441406 24.503906 C 725.441406 38.035156 714.472656 49.007812 700.9375 49.007812 C 687.40625 49.007812 676.433594 38.035156 676.433594 24.503906 C 676.433594 10.972656 687.40625 0 700.9375 0 Z M 700.9375 0 " fill-opacity="1" fill-rule="evenodd"/></g><g clip-path="url(#996583dbb2)"><path fill="#6415ff" d="M 785.492188 0 C 799.027344 0 809.996094 10.972656 809.996094 24.503906 C 809.996094 38.035156 799.027344 49.007812 785.492188 49.007812 C 771.960938 49.007812 760.988281 38.035156 760.988281 24.503906 C 760.988281 10.972656 771.960938 0 785.492188 0 Z M 785.492188 0 " fill-opacity="1" fill-rule="evenodd"/></g><g clip-path="url(#f97e85044e)"><path fill="#6415ff" d="M 24.503906 84.554688 C 38.035156 84.554688 49.007812 95.523438 49.007812 109.058594 C 49.007812 122.589844 38.035156 133.5625 24.503906 133.5625 C 10.972656 133.5625 0 122.589844 0 109.058594 C 0 95.523438 10.972656 84.554688 24.503906 84.554688 Z M 24.503906 84.554688 " fill-opacity="1" fill-rule="evenodd"/></g><g clip-path="url(#0ce3bdfab4)"><path fill="#6415ff" d="M 109.058594 84.554688 C 122.589844 84.554688 133.5625 95.523438 133.5625 109.058594 C 133.5625 122.589844 122.589844 133.5625 109.058594 133.5625 C 95.523438 133.5625 84.554688 122.589844 84.554688 109.058594 C 84.554688 95.523438 95.523438 84.554688 109.058594 84.554688 Z M 109.058594 84.554688 " fill-opacity="1" fill-rule="evenodd"/></g><g clip-path="url(#cee4ad0233)"><path fill="#6415ff" d="M 193.613281 84.554688 C 207.144531 84.554688 218.117188 95.523438 218.117188 109.058594 C 218.117188 122.589844 207.144531 133.5625 193.613281 133.5625 C 180.078125 133.5625 169.109375 122.589844 169.109375 109.058594 C 169.109375 95.523438 180.078125 84.554688 193.613281 84.554688 Z M 193.613281 84.554688 " fill-opacity="1" fill-rule="evenodd"/></g><g clip-path="url(#f3311db195)"><path fill="#6415ff" d="M 278.167969 84.554688 C 291.699219 84.554688 302.671875 95.523438 302.671875 109.058594 C 302.671875 122.589844 291.699219 133.5625 278.167969 133.5625 C 264.632812 133.5625 253.664062 122.589844 253.664062 109.058594 C 253.664062 95.523438 264.632812 84.554688 278.167969 84.554688 Z M 278.167969 84.554688 " fill-opacity="1" fill-rule="evenodd"/></g><g clip-path="url(#0556cdb6dc)"><path fill="#6415ff" d="M 362.722656 84.554688 C 376.253906 84.554688 387.226562 95.523438 387.226562 109.058594 C 387.226562 122.589844 376.253906 133.5625 362.722656 133.5625 C 349.1875 133.5625 338.21875 122.589844 338.21875 109.058594 C 338.21875 95.523438 349.1875 84.554688 362.722656 84.554688 Z M 362.722656 84.554688 " fill-opacity="1" fill-rule="evenodd"/></g><g clip-path="url(#79a08b996a)"><path fill="#6415ff" d="M 447.277344 84.554688 C 460.808594 84.554688 471.78125 95.523438 471.78125 109.058594 C 471.78125 122.589844 460.808594 133.5625 447.277344 133.5625 C 433.742188 133.5625 422.773438 122.589844 422.773438 109.058594 C 422.773438 95.523438 433.742188 84.554688 447.277344 84.554688 Z M 447.277344 84.554688 " fill-opacity="1" fill-rule="evenodd"/></g><g clip-path="url(#fc4c2fa5f1)"><path fill="#6415ff" d="M 531.828125 84.554688 C 545.363281 84.554688 556.332031 95.523438 556.332031 109.058594 C 556.332031 122.589844 545.363281 133.5625 531.828125 133.5625 C 518.296875 133.5625 507.324219 122.589844 507.324219 109.058594 C 507.324219 95.523438 518.296875 84.554688 531.828125 84.554688 Z M 531.828125 84.554688 " fill-opacity="1" fill-rule="evenodd"/></g><g clip-path="url(#f39421f6ce)"><path fill="#6415ff" d="M 616.382812 84.554688 C 629.917969 84.554688 640.886719 95.523438 640.886719 109.058594 C 640.886719 122.589844 629.917969 133.5625 616.382812 133.5625 C 602.851562 133.5625 591.878906 122.589844 591.878906 109.058594 C 591.878906 95.523438 602.851562 84.554688 616.382812 84.554688 Z M 616.382812 84.554688 " fill-opacity="1" fill-rule="evenodd"/></g><g clip-path="url(#f950140994)"><path fill="#6415ff" d="M 700.9375 84.554688 C 714.472656 84.554688 725.441406 95.523438 725.441406 109.058594 C 725.441406 122.589844 714.472656 133.5625 700.9375 133.5625 C 687.40625 133.5625 676.433594 122.589844 676.433594 109.058594 C 676.433594 95.523438 687.40625 84.554688 700.9375 84.554688 Z M 700.9375 84.554688 " fill-opacity="1" fill-rule="evenodd"/></g><g clip-path="url(#88d3db80e8)"><path fill="#6415ff" d="M 785.492188 84.554688 C 799.027344 84.554688 809.996094 95.523438 809.996094 109.058594 C 809.996094 122.589844 799.027344 133.5625 785.492188 133.5625 C 771.960938 133.5625 760.988281 122.589844 760.988281 109.058594 C 760.988281 95.523438 771.960938 84.554688 785.492188 84.554688 Z M 785.492188 84.554688 " fill-opacity="1" fill-rule="evenodd"/></g><g clip-path="url(#92c0d6ed4f)"><path fill="#6415ff" d="M 24.503906 169.109375 C 38.035156 169.109375 49.007812 180.078125 49.007812 193.613281 C 49.007812 207.144531 38.035156 218.117188 24.503906 218.117188 C 10.972656 218.117188 0 207.144531 0 193.613281 C 0 180.078125 10.972656 169.109375 24.503906 169.109375 Z M 24.503906 169.109375 " fill-opacity="1" fill-rule="evenodd"/></g><g clip-path="url(#af6582f736)"><path fill="#6415ff" d="M 109.058594 169.109375 C 122.589844 169.109375 133.5625 180.078125 133.5625 193.613281 C 133.5625 207.144531 122.589844 218.117188 109.058594 218.117188 C 95.523438 218.117188 84.554688 207.144531 84.554688 193.613281 C 84.554688 180.078125 95.523438 169.109375 109.058594 169.109375 Z M 109.058594 169.109375 " fill-opacity="1" fill-rule="evenodd"/></g><g clip-path="url(#c77298e689)"><path fill="#6415ff" d="M 193.613281 169.109375 C 207.144531 169.109375 218.117188 180.078125 218.117188 193.613281 C 218.117188 207.144531 207.144531 218.117188 193.613281 218.117188 C 180.078125 218.117188 169.109375 207.144531 169.109375 193.613281 C 169.109375 180.078125 180.078125 169.109375 193.613281 169.109375 Z M 193.613281 169.109375 " fill-opacity="1" fill-rule="evenodd"/></g><g clip-path="url(#51207acdb7)"><path fill="#6415ff" d="M 278.167969 169.109375 C 291.699219 169.109375 302.671875 180.078125 302.671875 193.613281 C 302.671875 207.144531 291.699219 218.117188 278.167969 218.117188 C 264.632812 218.117188 253.664062 207.144531 253.664062 193.613281 C 253.664062 180.078125 264.632812 169.109375 278.167969 169.109375 Z M 278.167969 169.109375 " fill-opacity="1" fill-rule="evenodd"/></g><g clip-path="url(#15281b92c7)"><path fill="#6415ff" d="M 362.722656 169.109375 C 376.253906 169.109375 387.226562 180.078125 387.226562 193.613281 C 387.226562 207.144531 376.253906 218.117188 362.722656 218.117188 C 349.1875 218.117188 338.21875 207.144531 338.21875 193.613281 C 338.21875 180.078125 349.1875 169.109375 362.722656 169.109375 Z M 362.722656 169.109375 " fill-opacity="1" fill-rule="evenodd"/></g><g clip-path="url(#114c3141ee)"><path fill="#6415ff" d="M 447.277344 169.109375 C 460.808594 169.109375 471.78125 180.078125 471.78125 193.613281 C 471.78125 207.144531 460.808594 218.117188 447.277344 218.117188 C 433.742188 218.117188 422.773438 207.144531 422.773438 193.613281 C 422.773438 180.078125 433.742188 169.109375 447.277344 169.109375 Z M 447.277344 169.109375 " fill-opacity="1" fill-rule="evenodd"/></g><g clip-path="url(#1852a8dde4)"><path fill="#6415ff" d="M 531.828125 169.109375 C 545.363281 169.109375 556.332031 180.078125 556.332031 193.613281 C 556.332031 207.144531 545.363281 218.117188 531.828125 218.117188 C 518.296875 218.117188 507.324219 207.144531 507.324219 193.613281 C 507.324219 180.078125 518.296875 169.109375 531.828125 169.109375 Z M 531.828125 169.109375 " fill-opacity="1" fill-rule="evenodd"/></g><g clip-path="url(#d1b9ce2a69)"><path fill="#6415ff" d="M 616.382812 169.109375 C 629.917969 169.109375 640.886719 180.078125 640.886719 193.613281 C 640.886719 207.144531 629.917969 218.117188 616.382812 218.117188 C 602.851562 218.117188 591.878906 207.144531 591.878906 193.613281 C 591.878906 180.078125 602.851562 169.109375 616.382812 169.109375 Z M 616.382812 169.109375 " fill-opacity="1" fill-rule="evenodd"/></g><g clip-path="url(#56586b6bd9)"><path fill="#6415ff" d="M 700.9375 169.109375 C 714.472656 169.109375 725.441406 180.078125 725.441406 193.613281 C 725.441406 207.144531 714.472656 218.117188 700.9375 218.117188 C 687.40625 218.117188 676.433594 207.144531 676.433594 193.613281 C 676.433594 180.078125 687.40625 169.109375 700.9375 169.109375 Z M 700.9375 169.109375 " fill-opacity="1" fill-rule="evenodd"/></g><g clip-path="url(#2292e0f35c)"><path fill="#6415ff" d="M 785.492188 169.109375 C 799.027344 169.109375 809.996094 180.078125 809.996094 193.613281 C 809.996094 207.144531 799.027344 218.117188 785.492188 218.117188 C 771.960938 218.117188 760.988281 207.144531 760.988281 193.613281 C 760.988281 180.078125 771.960938 169.109375 785.492188 169.109375 Z M 785.492188 169.109375 " fill-opacity="1" fill-rule="evenodd"/></g><g clip-path="url(#fe08ad62bf)"><path fill="#6415ff" d="M 24.503906 253.664062 C 38.035156 253.664062 49.007812 264.632812 49.007812 278.167969 C 49.007812 291.699219 38.035156 302.671875 24.503906 302.671875 C 10.972656 302.671875 0 291.699219 0 278.167969 C 0 264.632812 10.972656 253.664062 24.503906 253.664062 Z M 24.503906 253.664062 " fill-opacity="1" fill-rule="evenodd"/></g><g clip-path="url(#cebcc7fe27)"><path fill="#6415ff" d="M 109.058594 253.664062 C 122.589844 253.664062 133.5625 264.632812 133.5625 278.167969 C 133.5625 291.699219 122.589844 302.671875 109.058594 302.671875 C 95.523438 302.671875 84.554688 291.699219 84.554688 278.167969 C 84.554688 264.632812 95.523438 253.664062 109.058594 253.664062 Z M 109.058594 253.664062 " fill-opacity="1" fill-rule="evenodd"/></g><g clip-path="url(#928a8595d8)"><path fill="#6415ff" d="M 193.613281 253.664062 C 207.144531 253.664062 218.117188 264.632812 218.117188 278.167969 C 218.117188 291.699219 207.144531 302.671875 193.613281 302.671875 C 180.078125 302.671875 169.109375 291.699219 169.109375 278.167969 C 169.109375 264.632812 180.078125 253.664062 193.613281 253.664062 Z M 193.613281 253.664062 " fill-opacity="1" fill-rule="evenodd"/></g><g clip-path="url(#0d52940ff0)"><path fill="#6415ff" d="M 278.167969 253.664062 C 291.699219 253.664062 302.671875 264.632812 302.671875 278.167969 C 302.671875 291.699219 291.699219 302.671875 278.167969 302.671875 C 264.632812 302.671875 253.664062 291.699219 253.664062 278.167969 C 253.664062 264.632812 264.632812 253.664062 278.167969 253.664062 Z M 278.167969 253.664062 " fill-opacity="1" fill-rule="evenodd"/></g><g clip-path="url(#bd05a6dea0)"><path fill="#6415ff" d="M 362.722656 253.664062 C 376.253906 253.664062 387.226562 264.632812 387.226562 278.167969 C 387.226562 291.699219 376.253906 302.671875 362.722656 302.671875 C 349.1875 302.671875 338.21875 291.699219 338.21875 278.167969 C 338.21875 264.632812 349.1875 253.664062 362.722656 253.664062 Z M 362.722656 253.664062 " fill-opacity="1" fill-rule="evenodd"/></g><g clip-path="url(#cfaf586439)"><path fill="#6415ff" d="M 447.277344 253.664062 C 460.808594 253.664062 471.78125 264.632812 471.78125 278.167969 C 471.78125 291.699219 460.808594 302.671875 447.277344 302.671875 C 433.742188 302.671875 422.773438 291.699219 422.773438 278.167969 C 422.773438 264.632812 433.742188 253.664062 447.277344 253.664062 Z M 447.277344 253.664062 " fill-opacity="1" fill-rule="evenodd"/></g><g clip-path="url(#6b3a71b158)"><path fill="#6415ff" d="M 531.828125 253.664062 C 545.363281 253.664062 556.332031 264.632812 556.332031 278.167969 C 556.332031 291.699219 545.363281 302.671875 531.828125 302.671875 C 518.296875 302.671875 507.324219 291.699219 507.324219 278.167969 C 507.324219 264.632812 518.296875 253.664062 531.828125 253.664062 Z M 531.828125 253.664062 " fill-opacity="1" fill-rule="evenodd"/></g><g clip-path="url(#04564c95df)"><path fill="#6415ff" d="M 616.382812 253.664062 C 629.917969 253.664062 640.886719 264.632812 640.886719 278.167969 C 640.886719 291.699219 629.917969 302.671875 616.382812 302.671875 C 602.851562 302.671875 591.878906 291.699219 591.878906 278.167969 C 591.878906 264.632812 602.851562 253.664062 616.382812 253.664062 Z M 616.382812 253.664062 " fill-opacity="1" fill-rule="evenodd"/></g><g clip-path="url(#75c77263aa)"><path fill="#6415ff" d="M 700.9375 253.664062 C 714.472656 253.664062 725.441406 264.632812 725.441406 278.167969 C 725.441406 291.699219 714.472656 302.671875 700.9375 302.671875 C 687.40625 302.671875 676.433594 291.699219 676.433594 278.167969 C 676.433594 264.632812 687.40625 253.664062 700.9375 253.664062 Z M 700.9375 253.664062 " fill-opacity="1" fill-rule="evenodd"/></g><g clip-path="url(#54d5502e17)"><path fill="#6415ff" d="M 785.492188 253.664062 C 799.027344 253.664062 809.996094 264.632812 809.996094 278.167969 C 809.996094 291.699219 799.027344 302.671875 785.492188 302.671875 C 771.960938 302.671875 760.988281 291.699219 760.988281 278.167969 C 760.988281 264.632812 771.960938 253.664062 785.492188 253.664062 Z M 785.492188 253.664062 " fill-opacity="1" fill-rule="evenodd"/></g><g clip-path="url(#3a04519af8)"><path fill="#6415ff" d="M 24.503906 338.21875 C 38.035156 338.21875 49.007812 349.1875 49.007812 362.722656 C 49.007812 376.253906 38.035156 387.226562 24.503906 387.226562 C 10.972656 387.226562 0 376.253906 0 362.722656 C 0 349.1875 10.972656 338.21875 24.503906 338.21875 Z M 24.503906 338.21875 " fill-opacity="1" fill-rule="evenodd"/></g><g clip-path="url(#08cc7b1ced)"><path fill="#6415ff" d="M 109.058594 338.21875 C 122.589844 338.21875 133.5625 349.1875 133.5625 362.722656 C 133.5625 376.253906 122.589844 387.226562 109.058594 387.226562 C 95.523438 387.226562 84.554688 376.253906 84.554688 362.722656 C 84.554688 349.1875 95.523438 338.21875 109.058594 338.21875 Z M 109.058594 338.21875 " fill-opacity="1" fill-rule="evenodd"/></g><g clip-path="url(#0524dbc9ab)"><path fill="#6415ff" d="M 193.613281 338.21875 C 207.144531 338.21875 218.117188 349.1875 218.117188 362.722656 C 218.117188 376.253906 207.144531 387.226562 193.613281 387.226562 C 180.078125 387.226562 169.109375 376.253906 169.109375 362.722656 C 169.109375 349.1875 180.078125 338.21875 193.613281 338.21875 Z M 193.613281 338.21875 " fill-opacity="1" fill-rule="evenodd"/></g><g clip-path="url(#6d475349dd)"><path fill="#6415ff" d="M 278.167969 338.21875 C 291.699219 338.21875 302.671875 349.1875 302.671875 362.722656 C 302.671875 376.253906 291.699219 387.226562 278.167969 387.226562 C 264.632812 387.226562 253.664062 376.253906 253.664062 362.722656 C 253.664062 349.1875 264.632812 338.21875 278.167969 338.21875 Z M 278.167969 338.21875 " fill-opacity="1" fill-rule="evenodd"/></g><g clip-path="url(#6a28ce56de)"><path fill="#6415ff" d="M 362.722656 338.21875 C 376.253906 338.21875 387.226562 349.1875 387.226562 362.722656 C 387.226562 376.253906 376.253906 387.226562 362.722656 387.226562 C 349.1875 387.226562 338.21875 376.253906 338.21875 362.722656 C 338.21875 349.1875 349.1875 338.21875 362.722656 338.21875 Z M 362.722656 338.21875 " fill-opacity="1" fill-rule="evenodd"/></g><g clip-path="url(#624b133821)"><path fill="#6415ff" d="M 447.277344 338.21875 C 460.808594 338.21875 471.78125 349.1875 471.78125 362.722656 C 471.78125 376.253906 460.808594 387.226562 447.277344 387.226562 C 433.742188 387.226562 422.773438 376.253906 422.773438 362.722656 C 422.773438 349.1875 433.742188 338.21875 447.277344 338.21875 Z M 447.277344 338.21875 " fill-opacity="1" fill-rule="evenodd"/></g><g clip-path="url(#95fb16a201)"><path fill="#6415ff" d="M 531.828125 338.21875 C 545.363281 338.21875 556.332031 349.1875 556.332031 362.722656 C 556.332031 376.253906 545.363281 387.226562 531.828125 387.226562 C 518.296875 387.226562 507.324219 376.253906 507.324219 362.722656 C 507.324219 349.1875 518.296875 338.21875 531.828125 338.21875 Z M 531.828125 338.21875 " fill-opacity="1" fill-rule="evenodd"/></g><g clip-path="url(#d73807c5a5)"><path fill="#6415ff" d="M 616.382812 338.21875 C 629.917969 338.21875 640.886719 349.1875 640.886719 362.722656 C 640.886719 376.253906 629.917969 387.226562 616.382812 387.226562 C 602.851562 387.226562 591.878906 376.253906 591.878906 362.722656 C 591.878906 349.1875 602.851562 338.21875 616.382812 338.21875 Z M 616.382812 338.21875 " fill-opacity="1" fill-rule="evenodd"/></g><g clip-path="url(#e8586dcc7e)"><path fill="#6415ff" d="M 700.9375 338.21875 C 714.472656 338.21875 725.441406 349.1875 725.441406 362.722656 C 725.441406 376.253906 714.472656 387.226562 700.9375 387.226562 C 687.40625 387.226562 676.433594 376.253906 676.433594 362.722656 C 676.433594 349.1875 687.40625 338.21875 700.9375 338.21875 Z M 700.9375 338.21875 " fill-opacity="1" fill-rule="evenodd"/></g><g clip-path="url(#9c1641c4e8)"><path fill="#6415ff" d="M 785.492188 338.21875 C 799.027344 338.21875 809.996094 349.1875 809.996094 362.722656 C 809.996094 376.253906 799.027344 387.226562 785.492188 387.226562 C 771.960938 387.226562 760.988281 376.253906 760.988281 362.722656 C 760.988281 349.1875 771.960938 338.21875 785.492188 338.21875 Z M 785.492188 338.21875 " fill-opacity="1" fill-rule="evenodd"/></g><g clip-path="url(#fe3100da28)"><path fill="#6415ff" d="M 24.503906 422.773438 C 38.035156 422.773438 49.007812 433.742188 49.007812 447.277344 C 49.007812 460.808594 38.035156 471.78125 24.503906 471.78125 C 10.972656 471.78125 0 460.808594 0 447.277344 C 0 433.742188 10.972656 422.773438 24.503906 422.773438 Z M 24.503906 422.773438 " fill-opacity="1" fill-rule="evenodd"/></g><g clip-path="url(#7790794adc)"><path fill="#6415ff" d="M 109.058594 422.773438 C 122.589844 422.773438 133.5625 433.742188 133.5625 447.277344 C 133.5625 460.808594 122.589844 471.78125 109.058594 471.78125 C 95.523438 471.78125 84.554688 460.808594 84.554688 447.277344 C 84.554688 433.742188 95.523438 422.773438 109.058594 422.773438 Z M 109.058594 422.773438 " fill-opacity="1" fill-rule="evenodd"/></g><g clip-path="url(#6a48ca2c93)"><path fill="#6415ff" d="M 193.613281 422.773438 C 207.144531 422.773438 218.117188 433.742188 218.117188 447.277344 C 218.117188 460.808594 207.144531 471.78125 193.613281 471.78125 C 180.078125 471.78125 169.109375 460.808594 169.109375 447.277344 C 169.109375 433.742188 180.078125 422.773438 193.613281 422.773438 Z M 193.613281 422.773438 " fill-opacity="1" fill-rule="evenodd"/></g><g clip-path="url(#bb4f66776a)"><path fill="#6415ff" d="M 278.167969 422.773438 C 291.699219 422.773438 302.671875 433.742188 302.671875 447.277344 C 302.671875 460.808594 291.699219 471.78125 278.167969 471.78125 C 264.632812 471.78125 253.664062 460.808594 253.664062 447.277344 C 253.664062 433.742188 264.632812 422.773438 278.167969 422.773438 Z M 278.167969 422.773438 " fill-opacity="1" fill-rule="evenodd"/></g><g clip-path="url(#ec3aa1953e)"><path fill="#6415ff" d="M 362.722656 422.773438 C 376.253906 422.773438 387.226562 433.742188 387.226562 447.277344 C 387.226562 460.808594 376.253906 471.78125 362.722656 471.78125 C 349.1875 471.78125 338.21875 460.808594 338.21875 447.277344 C 338.21875 433.742188 349.1875 422.773438 362.722656 422.773438 Z M 362.722656 422.773438 " fill-opacity="1" fill-rule="evenodd"/></g><g clip-path="url(#9a3b7dce2a)"><path fill="#6415ff" d="M 447.277344 422.773438 C 460.808594 422.773438 471.78125 433.742188 471.78125 447.277344 C 471.78125 460.808594 460.808594 471.78125 447.277344 471.78125 C 433.742188 471.78125 422.773438 460.808594 422.773438 447.277344 C 422.773438 433.742188 433.742188 422.773438 447.277344 422.773438 Z M 447.277344 422.773438 " fill-opacity="1" fill-rule="evenodd"/></g><g clip-path="url(#c89f450f1c)"><path fill="#6415ff" d="M 531.828125 422.773438 C 545.363281 422.773438 556.332031 433.742188 556.332031 447.277344 C 556.332031 460.808594 545.363281 471.78125 531.828125 471.78125 C 518.296875 471.78125 507.324219 460.808594 507.324219 447.277344 C 507.324219 433.742188 518.296875 422.773438 531.828125 422.773438 Z M 531.828125 422.773438 " fill-opacity="1" fill-rule="evenodd"/></g><g clip-path="url(#23bcbb4411)"><path fill="#6415ff" d="M 616.382812 422.773438 C 629.917969 422.773438 640.886719 433.742188 640.886719 447.277344 C 640.886719 460.808594 629.917969 471.78125 616.382812 471.78125 C 602.851562 471.78125 591.878906 460.808594 591.878906 447.277344 C 591.878906 433.742188 602.851562 422.773438 616.382812 422.773438 Z M 616.382812 422.773438 " fill-opacity="1" fill-rule="evenodd"/></g><g clip-path="url(#caeb3870ef)"><path fill="#6415ff" d="M 700.9375 422.773438 C 714.472656 422.773438 725.441406 433.742188 725.441406 447.277344 C 725.441406 460.808594 714.472656 471.78125 700.9375 471.78125 C 687.40625 471.78125 676.433594 460.808594 676.433594 447.277344 C 676.433594 433.742188 687.40625 422.773438 700.9375 422.773438 Z M 700.9375 422.773438 " fill-opacity="1" fill-rule="evenodd"/></g><g clip-path="url(#42f66ed344)"><path fill="#6415ff" d="M 785.492188 422.773438 C 799.027344 422.773438 809.996094 433.742188 809.996094 447.277344 C 809.996094 460.808594 799.027344 471.78125 785.492188 471.78125 C 771.960938 471.78125 760.988281 460.808594 760.988281 447.277344 C 760.988281 433.742188 771.960938 422.773438 785.492188 422.773438 Z M 785.492188 422.773438 " fill-opacity="1" fill-rule="evenodd"/></g><g clip-path="url(#00f3c6f2df)"><path fill="#6415ff" d="M 24.503906 507.324219 C 38.035156 507.324219 49.007812 518.296875 49.007812 531.828125 C 49.007812 545.363281 38.035156 556.332031 24.503906 556.332031 C 10.972656 556.332031 0 545.363281 0 531.828125 C 0 518.296875 10.972656 507.324219 24.503906 507.324219 Z M 24.503906 507.324219 " fill-opacity="1" fill-rule="evenodd"/></g><g clip-path="url(#23f044d760)"><path fill="#6415ff" d="M 109.058594 507.324219 C 122.589844 507.324219 133.5625 518.296875 133.5625 531.828125 C 133.5625 545.363281 122.589844 556.332031 109.058594 556.332031 C 95.523438 556.332031 84.554688 545.363281 84.554688 531.828125 C 84.554688 518.296875 95.523438 507.324219 109.058594 507.324219 Z M 109.058594 507.324219 " fill-opacity="1" fill-rule="evenodd"/></g><g clip-path="url(#a746c55bdc)"><path fill="#6415ff" d="M 193.613281 507.324219 C 207.144531 507.324219 218.117188 518.296875 218.117188 531.828125 C 218.117188 545.363281 207.144531 556.332031 193.613281 556.332031 C 180.078125 556.332031 169.109375 545.363281 169.109375 531.828125 C 169.109375 518.296875 180.078125 507.324219 193.613281 507.324219 Z M 193.613281 507.324219 " fill-opacity="1" fill-rule="evenodd"/></g><g clip-path="url(#14c72e444c)"><path fill="#6415ff" d="M 278.167969 507.324219 C 291.699219 507.324219 302.671875 518.296875 302.671875 531.828125 C 302.671875 545.363281 291.699219 556.332031 278.167969 556.332031 C 264.632812 556.332031 253.664062 545.363281 253.664062 531.828125 C 253.664062 518.296875 264.632812 507.324219 278.167969 507.324219 Z M 278.167969 507.324219 " fill-opacity="1" fill-rule="evenodd"/></g><g clip-path="url(#4807883d13)"><path fill="#6415ff" d="M 362.722656 507.324219 C 376.253906 507.324219 387.226562 518.296875 387.226562 531.828125 C 387.226562 545.363281 376.253906 556.332031 362.722656 556.332031 C 349.1875 556.332031 338.21875 545.363281 338.21875 531.828125 C 338.21875 518.296875 349.1875 507.324219 362.722656 507.324219 Z M 362.722656 507.324219 " fill-opacity="1" fill-rule="evenodd"/></g><g clip-path="url(#0ac90c4581)"><path fill="#6415ff" d="M 447.277344 507.324219 C 460.808594 507.324219 471.78125 518.296875 471.78125 531.828125 C 471.78125 545.363281 460.808594 556.332031 447.277344 556.332031 C 433.742188 556.332031 422.773438 545.363281 422.773438 531.828125 C 422.773438 518.296875 433.742188 507.324219 447.277344 507.324219 Z M 447.277344 507.324219 " fill-opacity="1" fill-rule="evenodd"/></g><g clip-path="url(#ea30a43321)"><path fill="#6415ff" d="M 531.828125 507.324219 C 545.363281 507.324219 556.332031 518.296875 556.332031 531.828125 C 556.332031 545.363281 545.363281 556.332031 531.828125 556.332031 C 518.296875 556.332031 507.324219 545.363281 507.324219 531.828125 C 507.324219 518.296875 518.296875 507.324219 531.828125 507.324219 Z M 531.828125 507.324219 " fill-opacity="1" fill-rule="evenodd"/></g><g clip-path="url(#0ba24d5db7)"><path fill="#6415ff" d="M 616.382812 507.324219 C 629.917969 507.324219 640.886719 518.296875 640.886719 531.828125 C 640.886719 545.363281 629.917969 556.332031 616.382812 556.332031 C 602.851562 556.332031 591.878906 545.363281 591.878906 531.828125 C 591.878906 518.296875 602.851562 507.324219 616.382812 507.324219 Z M 616.382812 507.324219 " fill-opacity="1" fill-rule="evenodd"/></g><g clip-path="url(#cbe58b4d04)"><path fill="#6415ff" d="M 700.9375 507.324219 C 714.472656 507.324219 725.441406 518.296875 725.441406 531.828125 C 725.441406 545.363281 714.472656 556.332031 700.9375 556.332031 C 687.40625 556.332031 676.433594 545.363281 676.433594 531.828125 C 676.433594 518.296875 687.40625 507.324219 700.9375 507.324219 Z M 700.9375 507.324219 " fill-opacity="1" fill-rule="evenodd"/></g><g clip-path="url(#d0910a148b)"><path fill="#6415ff" d="M 785.492188 507.324219 C 799.027344 507.324219 809.996094 518.296875 809.996094 531.828125 C 809.996094 545.363281 799.027344 556.332031 785.492188 556.332031 C 771.960938 556.332031 760.988281 545.363281 760.988281 531.828125 C 760.988281 518.296875 771.960938 507.324219 785.492188 507.324219 Z M 785.492188 507.324219 " fill-opacity="1" fill-rule="evenodd"/></g><g clip-path="url(#402ccefae0)"><path fill="#6415ff" d="M 24.503906 591.878906 C 38.035156 591.878906 49.007812 602.851562 49.007812 616.382812 C 49.007812 629.917969 38.035156 640.886719 24.503906 640.886719 C 10.972656 640.886719 0 629.917969 0 616.382812 C 0 602.851562 10.972656 591.878906 24.503906 591.878906 Z M 24.503906 591.878906 " fill-opacity="1" fill-rule="evenodd"/></g><g clip-path="url(#4345a2dbed)"><path fill="#6415ff" d="M 109.058594 591.878906 C 122.589844 591.878906 133.5625 602.851562 133.5625 616.382812 C 133.5625 629.917969 122.589844 640.886719 109.058594 640.886719 C 95.523438 640.886719 84.554688 629.917969 84.554688 616.382812 C 84.554688 602.851562 95.523438 591.878906 109.058594 591.878906 Z M 109.058594 591.878906 " fill-opacity="1" fill-rule="evenodd"/></g><g clip-path="url(#69a94aca47)"><path fill="#6415ff" d="M 193.613281 591.878906 C 207.144531 591.878906 218.117188 602.851562 218.117188 616.382812 C 218.117188 629.917969 207.144531 640.886719 193.613281 640.886719 C 180.078125 640.886719 169.109375 629.917969 169.109375 616.382812 C 169.109375 602.851562 180.078125 591.878906 193.613281 591.878906 Z M 193.613281 591.878906 " fill-opacity="1" fill-rule="evenodd"/></g><g clip-path="url(#c5e4c14994)"><path fill="#6415ff" d="M 278.167969 591.878906 C 291.699219 591.878906 302.671875 602.851562 302.671875 616.382812 C 302.671875 629.917969 291.699219 640.886719 278.167969 640.886719 C 264.632812 640.886719 253.664062 629.917969 253.664062 616.382812 C 253.664062 602.851562 264.632812 591.878906 278.167969 591.878906 Z M 278.167969 591.878906 " fill-opacity="1" fill-rule="evenodd"/></g><g clip-path="url(#715cfc0e13)"><path fill="#6415ff" d="M 362.722656 591.878906 C 376.253906 591.878906 387.226562 602.851562 387.226562 616.382812 C 387.226562 629.917969 376.253906 640.886719 362.722656 640.886719 C 349.1875 640.886719 338.21875 629.917969 338.21875 616.382812 C 338.21875 602.851562 349.1875 591.878906 362.722656 591.878906 Z M 362.722656 591.878906 " fill-opacity="1" fill-rule="evenodd"/></g><g clip-path="url(#c64922064c)"><path fill="#6415ff" d="M 447.277344 591.878906 C 460.808594 591.878906 471.78125 602.851562 471.78125 616.382812 C 471.78125 629.917969 460.808594 640.886719 447.277344 640.886719 C 433.742188 640.886719 422.773438 629.917969 422.773438 616.382812 C 422.773438 602.851562 433.742188 591.878906 447.277344 591.878906 Z M 447.277344 591.878906 " fill-opacity="1" fill-rule="evenodd"/></g><g clip-path="url(#c0cc9254a4)"><path fill="#6415ff" d="M 531.828125 591.878906 C 545.363281 591.878906 556.332031 602.851562 556.332031 616.382812 C 556.332031 629.917969 545.363281 640.886719 531.828125 640.886719 C 518.296875 640.886719 507.324219 629.917969 507.324219 616.382812 C 507.324219 602.851562 518.296875 591.878906 531.828125 591.878906 Z M 531.828125 591.878906 " fill-opacity="1" fill-rule="evenodd"/></g><g clip-path="url(#879eef6d60)"><path fill="#6415ff" d="M 616.382812 591.878906 C 629.917969 591.878906 640.886719 602.851562 640.886719 616.382812 C 640.886719 629.917969 629.917969 640.886719 616.382812 640.886719 C 602.851562 640.886719 591.878906 629.917969 591.878906 616.382812 C 591.878906 602.851562 602.851562 591.878906 616.382812 591.878906 Z M 616.382812 591.878906 " fill-opacity="1" fill-rule="evenodd"/></g><g clip-path="url(#e80215afbc)"><path fill="#6415ff" d="M 700.9375 591.878906 C 714.472656 591.878906 725.441406 602.851562 725.441406 616.382812 C 725.441406 629.917969 714.472656 640.886719 700.9375 640.886719 C 687.40625 640.886719 676.433594 629.917969 676.433594 616.382812 C 676.433594 602.851562 687.40625 591.878906 700.9375 591.878906 Z M 700.9375 591.878906 " fill-opacity="1" fill-rule="evenodd"/></g><g clip-path="url(#cfb861a2a8)"><path fill="#6415ff" d="M 785.492188 591.878906 C 799.027344 591.878906 809.996094 602.851562 809.996094 616.382812 C 809.996094 629.917969 799.027344 640.886719 785.492188 640.886719 C 771.960938 640.886719 760.988281 629.917969 760.988281 616.382812 C 760.988281 602.851562 771.960938 591.878906 785.492188 591.878906 Z M 785.492188 591.878906 " fill-opacity="1" fill-rule="evenodd"/></g><g clip-path="url(#7e3b09d769)"><path fill="#6415ff" d="M 24.503906 676.433594 C 38.035156 676.433594 49.007812 687.40625 49.007812 700.9375 C 49.007812 714.472656 38.035156 725.441406 24.503906 725.441406 C 10.972656 725.441406 0 714.472656 0 700.9375 C 0 687.40625 10.972656 676.433594 24.503906 676.433594 Z M 24.503906 676.433594 " fill-opacity="1" fill-rule="evenodd"/></g><g clip-path="url(#2d17da69df)"><path fill="#6415ff" d="M 109.058594 676.433594 C 122.589844 676.433594 133.5625 687.40625 133.5625 700.9375 C 133.5625 714.472656 122.589844 725.441406 109.058594 725.441406 C 95.523438 725.441406 84.554688 714.472656 84.554688 700.9375 C 84.554688 687.40625 95.523438 676.433594 109.058594 676.433594 Z M 109.058594 676.433594 " fill-opacity="1" fill-rule="evenodd"/></g><g clip-path="url(#7fc7f438b4)"><path fill="#6415ff" d="M 193.613281 676.433594 C 207.144531 676.433594 218.117188 687.40625 218.117188 700.9375 C 218.117188 714.472656 207.144531 725.441406 193.613281 725.441406 C 180.078125 725.441406 169.109375 714.472656 169.109375 700.9375 C 169.109375 687.40625 180.078125 676.433594 193.613281 676.433594 Z M 193.613281 676.433594 " fill-opacity="1" fill-rule="evenodd"/></g><g clip-path="url(#f318bd9c87)"><path fill="#6415ff" d="M 278.167969 676.433594 C 291.699219 676.433594 302.671875 687.40625 302.671875 700.9375 C 302.671875 714.472656 291.699219 725.441406 278.167969 725.441406 C 264.632812 725.441406 253.664062 714.472656 253.664062 700.9375 C 253.664062 687.40625 264.632812 676.433594 278.167969 676.433594 Z M 278.167969 676.433594 " fill-opacity="1" fill-rule="evenodd"/></g><g clip-path="url(#4b10d13f3b)"><path fill="#6415ff" d="M 362.722656 676.433594 C 376.253906 676.433594 387.226562 687.40625 387.226562 700.9375 C 387.226562 714.472656 376.253906 725.441406 362.722656 725.441406 C 349.1875 725.441406 338.21875 714.472656 338.21875 700.9375 C 338.21875 687.40625 349.1875 676.433594 362.722656 676.433594 Z M 362.722656 676.433594 " fill-opacity="1" fill-rule="evenodd"/></g><g clip-path="url(#ca682ef7c5)"><path fill="#6415ff" d="M 447.277344 676.433594 C 460.808594 676.433594 471.78125 687.40625 471.78125 700.9375 C 471.78125 714.472656 460.808594 725.441406 447.277344 725.441406 C 433.742188 725.441406 422.773438 714.472656 422.773438 700.9375 C 422.773438 687.40625 433.742188 676.433594 447.277344 676.433594 Z M 447.277344 676.433594 " fill-opacity="1" fill-rule="evenodd"/></g><g clip-path="url(#183c70593d)"><path fill="#6415ff" d="M 531.828125 676.433594 C 545.363281 676.433594 556.332031 687.40625 556.332031 700.9375 C 556.332031 714.472656 545.363281 725.441406 531.828125 725.441406 C 518.296875 725.441406 507.324219 714.472656 507.324219 700.9375 C 507.324219 687.40625 518.296875 676.433594 531.828125 676.433594 Z M 531.828125 676.433594 " fill-opacity="1" fill-rule="evenodd"/></g><g clip-path="url(#fa5aee1595)"><path fill="#6415ff" d="M 616.382812 676.433594 C 629.917969 676.433594 640.886719 687.40625 640.886719 700.9375 C 640.886719 714.472656 629.917969 725.441406 616.382812 725.441406 C 602.851562 725.441406 591.878906 714.472656 591.878906 700.9375 C 591.878906 687.40625 602.851562 676.433594 616.382812 676.433594 Z M 616.382812 676.433594 " fill-opacity="1" fill-rule="evenodd"/></g><g clip-path="url(#b778397eb2)"><path fill="#6415ff" d="M 700.9375 676.433594 C 714.472656 676.433594 725.441406 687.40625 725.441406 700.9375 C 725.441406 714.472656 714.472656 725.441406 700.9375 725.441406 C 687.40625 725.441406 676.433594 714.472656 676.433594 700.9375 C 676.433594 687.40625 687.40625 676.433594 700.9375 676.433594 Z M 700.9375 676.433594 " fill-opacity="1" fill-rule="evenodd"/></g><g clip-path="url(#a0d2e237ba)"><path fill="#6415ff" d="M 785.492188 676.433594 C 799.027344 676.433594 809.996094 687.40625 809.996094 700.9375 C 809.996094 714.472656 799.027344 725.441406 785.492188 725.441406 C 771.960938 725.441406 760.988281 714.472656 760.988281 700.9375 C 760.988281 687.40625 771.960938 676.433594 785.492188 676.433594 Z M 785.492188 676.433594 " fill-opacity="1" fill-rule="evenodd"/></g><g clip-path="url(#aca946512e)"><path fill="#6415ff" d="M 24.503906 760.988281 C 38.035156 760.988281 49.007812 771.960938 49.007812 785.492188 C 49.007812 799.027344 38.035156 809.996094 24.503906 809.996094 C 10.972656 809.996094 0 799.027344 0 785.492188 C 0 771.960938 10.972656 760.988281 24.503906 760.988281 Z M 24.503906 760.988281 " fill-opacity="1" fill-rule="evenodd"/></g><g clip-path="url(#17e299d3b9)"><path fill="#6415ff" d="M 109.058594 760.988281 C 122.589844 760.988281 133.5625 771.960938 133.5625 785.492188 C 133.5625 799.027344 122.589844 809.996094 109.058594 809.996094 C 95.523438 809.996094 84.554688 799.027344 84.554688 785.492188 C 84.554688 771.960938 95.523438 760.988281 109.058594 760.988281 Z M 109.058594 760.988281 " fill-opacity="1" fill-rule="evenodd"/></g><g clip-path="url(#137f0d721b)"><path fill="#6415ff" d="M 193.613281 760.988281 C 207.144531 760.988281 218.117188 771.960938 218.117188 785.492188 C 218.117188 799.027344 207.144531 809.996094 193.613281 809.996094 C 180.078125 809.996094 169.109375 799.027344 169.109375 785.492188 C 169.109375 771.960938 180.078125 760.988281 193.613281 760.988281 Z M 193.613281 760.988281 " fill-opacity="1" fill-rule="evenodd"/></g><g clip-path="url(#22f5eb82b5)"><path fill="#6415ff" d="M 278.167969 760.988281 C 291.699219 760.988281 302.671875 771.960938 302.671875 785.492188 C 302.671875 799.027344 291.699219 809.996094 278.167969 809.996094 C 264.632812 809.996094 253.664062 799.027344 253.664062 785.492188 C 253.664062 771.960938 264.632812 760.988281 278.167969 760.988281 Z M 278.167969 760.988281 " fill-opacity="1" fill-rule="evenodd"/></g><g clip-path="url(#210900e52f)"><path fill="#6415ff" d="M 362.722656 760.988281 C 376.253906 760.988281 387.226562 771.960938 387.226562 785.492188 C 387.226562 799.027344 376.253906 809.996094 362.722656 809.996094 C 349.1875 809.996094 338.21875 799.027344 338.21875 785.492188 C 338.21875 771.960938 349.1875 760.988281 362.722656 760.988281 Z M 362.722656 760.988281 " fill-opacity="1" fill-rule="evenodd"/></g><g clip-path="url(#215853835d)"><path fill="#6415ff" d="M 447.277344 760.988281 C 460.808594 760.988281 471.78125 771.960938 471.78125 785.492188 C 471.78125 799.027344 460.808594 809.996094 447.277344 809.996094 C 433.742188 809.996094 422.773438 799.027344 422.773438 785.492188 C 422.773438 771.960938 433.742188 760.988281 447.277344 760.988281 Z M 447.277344 760.988281 " fill-opacity="1" fill-rule="evenodd"/></g><g clip-path="url(#08b85e854a)"><path fill="#6415ff" d="M 531.828125 760.988281 C 545.363281 760.988281 556.332031 771.960938 556.332031 785.492188 C 556.332031 799.027344 545.363281 809.996094 531.828125 809.996094 C 518.296875 809.996094 507.324219 799.027344 507.324219 785.492188 C 507.324219 771.960938 518.296875 760.988281 531.828125 760.988281 Z M 531.828125 760.988281 " fill-opacity="1" fill-rule="evenodd"/></g><g clip-path="url(#baac32a5f5)"><path fill="#6415ff" d="M 616.382812 760.988281 C 629.917969 760.988281 640.886719 771.960938 640.886719 785.492188 C 640.886719 799.027344 629.917969 809.996094 616.382812 809.996094 C 602.851562 809.996094 591.878906 799.027344 591.878906 785.492188 C 591.878906 771.960938 602.851562 760.988281 616.382812 760.988281 Z M 616.382812 760.988281 " fill-opacity="1" fill-rule="evenodd"/></g><g clip-path="url(#6c4c38faf1)"><path fill="#6415ff" d="M 700.9375 760.988281 C 714.472656 760.988281 725.441406 771.960938 725.441406 785.492188 C 725.441406 799.027344 714.472656 809.996094 700.9375 809.996094 C 687.40625 809.996094 676.433594 799.027344 676.433594 785.492188 C 676.433594 771.960938 687.40625 760.988281 700.9375 760.988281 Z M 700.9375 760.988281 " fill-opacity="1" fill-rule="evenodd"/></g><g clip-path="url(#c5c9a1610c)"><path fill="#6415ff" d="M 785.492188 760.988281 C 799.027344 760.988281 809.996094 771.960938 809.996094 785.492188 C 809.996094 799.027344 799.027344 809.996094 785.492188 809.996094 C 771.960938 809.996094 760.988281 799.027344 760.988281 785.492188 C 760.988281 771.960938 771.960938 760.988281 785.492188 760.988281 Z M 785.492188 760.988281 " fill-opacity="1" fill-rule="evenodd"/></g></svg>